<?xml version="1.0" standalone="no"?><!DOCTYPE svg PUBLIC "-//W3C//DTD SVG 1.1//EN" "http://www.w3.org/Graphics/SVG/1.1/DTD/svg11.dtd"><svg t="1709897833033" class="icon" viewBox="0 0 1024 1024" version="1.1" xmlns="http://www.w3.org/2000/svg" p-id="7061" xmlns:xlink="http://www.w3.org/1999/xlink" width="200" height="200"><path d="M496.73102222 975.07555555A471.68853333 471.68853333 0 0 1 281.03111111 923.648a9.43217778 9.43217778 0 0 1 8.57884444-16.83911111 452.99484445 452.99484445 0 0 0 207.07555556 49.41368889c145.73795555 0 284.10311111-70.38293333 370.11911111-188.27946667a9.43217778 9.43217778 0 1 1 15.24622223 11.12746667A476.09173333 476.09173333 0 0 1 496.73102222 975.07555555zM61.78133333 678.95751111a9.43217778 9.43217778 0 0 1-8.78364444-5.98471111A476.84266667 476.84266667 0 0 1 928.99555555 297.09653333a9.43217778 9.43217778 0 1 1-17.06666666 7.96444445C836.93795555 144.37262222 673.97404445 40.53902222 496.73102222 40.53902222 244.28088889 40.53902222 38.88924445 245.93066667 38.88924445 498.34666667A455.71413333 455.71413333 0 0 0 70.54222222 666.06648889a9.44355555 9.44355555 0 0 1-8.77226667 12.89102222z" fill="" p-id="7062"></path><path d="M514.32106667 498.39217778m-443.05066667 0a443.05066667 443.05066667 0 1 0 886.10133333 0 443.05066667 443.05066667 0 1 0-886.10133333 0Z" fill="#E3F6FF" p-id="7063" data-spm-anchor-id="a313x.search_index.0.i0.78c43a81TWCjEO" class="selected"></path><path d="M148.35484445 706.71928889s-29.2864-195.69777778 10.78613333-280.51911111S290.13333333 227.36213333 390.33742222 190.37297778s201.91004445-27.73902222 225.02968889-18.50026667 49.32266667 35.45315555 52.40604444 40.07253334S300.94222222 568.00142222 300.94222222 568.00142222l-29.2864 138.71786667-89.88444444-21.8112z" fill="" p-id="7064"></path><path d="M240.73102222 708.35768889s-34.26986667-47.3088-73.56871111-14.59768889-43.66791111 106.95111111-10.91128889 144.08817778 71.87342222 31.34577778 98.06506667 7.33866667 21.41297778-54.11271111 21.41297778-61.44 245.83964445 3.84568889 368.09386666-26.71502223 344.94008889-103.33297778 323.12888889-234.38222222-65.45635555-152.66702222-101.87662222-152.83768889c-43.47448889-0.2048-86.16391111 1.35395555-88.34844445 1.35395556s-22.27768889-3.52711111-29.58222222-26.08924445-32.38115555-106.95111111-74.94542222-132.08462222-209.22595555 4.73315555-287.85777778 68.05048889-185.87875555 200.95431111-188.06328888 221.32053333 11.69635555 184.16071111 44.45297777 205.99466667z" fill="#EEBC8E" p-id="7065" data-spm-anchor-id="a313x.search_index.0.i3.78c43a81TWCjEO" class="selected"></path><path d="M205.2096 894.93048889q-2.58275555 0-5.18826667-0.13653334a104.04977778 104.04977778 0 0 1-72.03271111-34.9639111C110.22791111 839.68 101.10293333 808.37973333 103.53777778 776.04408889s15.84924445-60.89386667 36.68195555-78.25635556c18.68231111-15.57617778 42.09777778-20.48 67.62951112-14.34737778 2.44622222 0.59164445 4.8128 1.26293333 7.05422222 1.97973334-12.15146667-22.36871111-22.08426667-55.10257778-29.0816-82.85297778-10.52444445-41.75644445-18.52302222-89.88444445-17.06666667-103.08266666 1.60426667-15.01866667 39.10542222-65.18328889 70.73564445-103.53777778 46.14826667-56.09244445 93.87804445-105.35822222 130.90133333-135.19075556 38.53653333-31.03857778 97.02968889-56.12657778 160.49493333-68.8128 58.82311111-11.76462222 110.04586667-10.41066667 133.68888889 3.53848889 48.00284445 28.30791111 93.29777778 114.0736 100.42026667 136.21475555 6.39431111 19.82008889 23.99573333 20.80995555 25.24728888 20.85546667 0.55751111 0 2.48035555-0.19342222 4.55111112-0.37546667 13.65333333-1.13777778 55.06844445-4.76728889 87.52924444-3.47022222 58.94826667 2.3552 96.79075555 58.60693333 115.68924444 171.97511112 5.68888889 34.22435555-3.25404445 67.12888889-26.624 97.65546666l-10.50168888-8.02133333c21.06026667-27.55697778 29.16124445-56.97991111 24.08675555-87.4496-17.74933333-106.25706667-51.49582222-158.90204445-103.19644444-160.96142223-31.61884445-1.26293333-72.44231111 2.27555555-85.85671111 3.41333334-3.97084445 0.34133333-4.92657778 0.42097778-5.58648889 0.42097778-0.28444445 0-28.31928889-0.34133333-37.888-30.01457778-7.48657778-23.21066667-51.62097778-103.53777778-94.56071111-128.88746667-20.63928889-12.17422222-69.46133333-12.93653333-124.38186667-1.95697777-61.44 12.288-117.87377778 36.40888889-154.79466667 66.1504-36.40888889 29.29777778-83.38773333 77.86951111-129.00124444 133.24515555s-67.06062222 89.78204445-67.7888 96.59733333c-0.97848889 9.10222222 5.07448889 51.99644445 16.7936 98.44053334 13.45991111 53.38453333 28.70613333 89.06524445 41.84746666 97.96266666l0.1592889 0.11377778-7.38417778 10.9568-0.11377778-0.06826666a97.59857778 97.59857778 0 0 0-28.79715556-12.09457778c-21.48124445-5.09724445-40.20906667-1.13777778-55.67146666 11.75324444-18.10204445 15.08693333-29.75288889 40.27733333-31.97155556 69.12s5.68888889 56.5248 21.12853334 74.02382222a90.76053333 90.76053333 0 0 0 62.82808888 30.5152c19.10328889 1.00124445 36.59093333-4.39182222 47.98008889-14.79111111 28.03484445-25.69102222 37.93351111-51.07484445 37.93351111-55.23911111 0-6.54222222 7.29315555-7.85066667 10.79751112-8.47644444s8.62435555-1.25155555 15.64444444-1.91146667c13.07306667-1.21742222 31.93742222-2.48035555 53.77137778-3.92533333C446.00888889 791.89333333 565.76 783.92888889 647.68 763.44888889c78.63182222-19.6608 145.63555555-42.9056 199.11111111-69.09724444l5.81404444 11.86702222c-54.32888889 26.65813333-122.15182222 50.22151111-201.728 70.09848888-83.05777778 20.76444445-203.48017778 28.7744-283.17013333 34.07644445-30.39004445 2.02524445-59.26684445 3.94808889-68.47146667 5.68888889-3.02648889 13.14133333-17.3056 38.11555555-41.60853333 60.39324444-12.9024 11.86702222-31.78951111 18.45475555-52.41742222 18.45475556z" fill="" p-id="7066"></path><path d="M301.71591111 323.69777778c24.09813333 4.55111111 69.40444445 24.28017778 78.60906667 38.14968889s5.77991111 39.29884445 0 47.39982222-37.76284445 14.25635555-58.95964445 0-51.2-20.42311111-58.5728-8.86328889-22.34595555 39.29884445-23.89333333 55.10257778-8.47644445 79.38275555-33.90577778 75.09333333-44.31644445-39.68568889-37.376-87.47235556 29.67324445-111.74115555 63.57902223-119.46666666 63.98862222-1.17191111 70.51946666 0.05688889zM445.05315555 197.12s-19.64942222 63.57902222-14.44977777 83.80871111 19.06915555 34.13333333 36.98915555 26.58986667 22.53937778-20.80995555 25.42933334-31.20924445 15.03004445-59.52853333 34.13333333-64.73955555 54.90915555 17.33973333 62.41848889 21.39022222 38.68444445 13.28924445 46.23928889-9.8304 1.72942222-41.61991111-17.33973333-53.74862222-72.27164445-45.6704-118.51093334-23.74542223-51.73475555 40.58453333-54.90915556 51.48444445z" fill="" p-id="7067"></path><path d="M254.86222222 612.98915555a6.59911111 6.59911111 0 0 1-6.0416-3.9367111c-0.38684445-0.87608889-9.51182222-21.85671111-8.81777777-50.97244445 0.63715555-26.90844445 10.12622222-66.08213333 51.68924444-99.90826667 24.25742222-19.75182222 56.34275555-28.18275555 92.76302222-24.39395555a177.75502222 177.75502222 0 0 1 47.90044444 11.69635555 6.61048889 6.61048889 0 1 1-5.25653333 12.12871112c-0.73955555-0.31857778-74.97955555-31.57333333-127.06702222 10.82026666-30.07146667 24.4736-45.80693333 54.61333333-46.7968 89.42933334a117.90791111 117.90791111 0 0 0 7.69137778 45.86382222 6.61048889 6.61048889 0 0 1-6.05297778 9.27288888zM515.7888 416.82488889a6.61048889 6.61048889 0 0 1-6.3488-4.80142222c-0.25031111-0.86471111-6.00746667-21.54951111-2.05937778-48.44657778 3.65226667-24.91733333 16.66844445-60.05191111 57.856-85.89084444 25.36106667-15.92888889 53.3504-18.80746667 83.21706667-8.63573334 23.80231111 8.11235555 42.76906667 22.55075555 52.96355556 30.29902222 1.78631111 1.35395555 3.74328889 2.84444445 4.94933333 3.6864a6.71288889 6.71288889 0 0 1 1.13777777 0.27306667 6.61048889 6.61048889 0 0 1 4.17564445 8.36266667 6.91768889 6.91768889 0 0 1-4.55111111 4.41457778c-4.00497778 1.24017778-6.47395555-0.63715555-13.80124444-6.21226667C674.29262222 295.33297778 623.50222222 256.7168 572.30222222 288.89315555c-29.58222222 18.59128889-47.06986667 44.37333333-51.80302222 76.60657778a113.40231111 113.40231111 0 0 0 1.6384 42.96248889 6.61048889 6.61048889 0 0 1-6.36017778 8.41955556z m183.3984-109.34044444z m0 0zM926.23075555 727.90471111a101.42151111 101.42151111 0 0 1-18.52302222-1.80906666c-18.90986667-3.51573333-40.53902222-12.41315555-59.31235555-24.39395556-18.30684445-11.68497778-31.03857778-24.2688-34.95253333-34.56568889-1.05813333-2.59413333-14.50666667-37.02328889 0.1479111-68.76728889 15.26897778-33.0752 64.72817778-40.96 115.06346667-18.28408889 28.72888889 12.92515555 51.2 39.53777778 57.23022223 67.80017778 4.88106667 22.75555555-1.13777778 45.12426667-16.86186667 62.83946667-10.10346667 11.3664-24.66702222 17.18044445-42.79182223 17.18044444z m-53.47555555-147.54702222a83.41048889 83.41048889 0 0 0-11.27537778 0.73955556c-17.48764445 2.37795555-30.24213333 10.47893333-35.93102222 22.75555555-12.51555555 27.11324445 0 58.02666667 0.1024 58.28835555l0.07964445 0.2048c5.57511111 14.85937778 45.57937778 43.48586667 84.34346666 50.69937778 15.30311111 2.84444445 36.23822222 3.21991111 49.02684444-11.1616 16.50915555-18.56853333 16.62293333-38.14968889 13.81262223-51.3024-5.18826667-24.28017778-24.71253333-47.25191111-49.73226667-58.50453333-17.12355555-7.66862222-34.57706667-11.71911111-50.3808-11.71911111z" fill="" p-id="7068"></path><path d="M831.54488889 662.06151111c8.8064 23.47235555 90.94257778 70.40568889 122.24284444 35.20284444s6.82666667-84.10453333-32.26737778-101.70595555-78.2336-12.70897778-89.96408888 12.70897778-0.01137778 53.79413333-0.01137778 53.79413333z" fill="#CC5A5A" p-id="7069"></path><path d="M486.76408889 585.1136c0 46.30755555-35.72622222 78.96177778-83.85422222 83.85422222-46.06862222 4.68764445-87.26755555-36.40888889-83.85422222-83.85422222 3.32231111-46.19377778 38.00177778-77.36888889 83.85422222-83.85422222 48.90168889-6.89493333 83.85422222 37.54666667 83.85422222 83.85422222z" fill="" p-id="7070"></path><path d="M722.83022222 425.40373333c-4.85831111 48.66275555-37.96764445 77.60782222-83.85422222 83.85422222-40.96 5.58648889-87.60888889-38.26346667-83.85422222-83.85422222 3.75466667-46.15964445 37.91075555-78.00604445 83.85422222-83.85422222 46.6944-5.90506667 88.45084445 37.77422222 83.85422222 83.85422222z" fill="" p-id="7071" data-spm-anchor-id="a313x.search_index.0.i2.78c43a81TWCjEO" class="selected"></path><path d="M437.19111111 586.10346667c-1.44497778 17.97688889-15.10968889 31.27751111-33.46204444 33.46204444-17.70382222 2.10488889-35.77173333-13.17546667-33.46204445-33.46204444 2.09351111-18.36373333 15.04142222-32.00568889 33.46204445-33.46204445 20.77582222-1.64977778 34.94115555 15.03004445 33.46204444 33.46204445zM667.79591111 431.50222222c-1.54737778 19.968-14.79111111 35.27111111-37.12568889 37.12568889-20.48 1.70666667-39.43537778-16.57742222-37.12568889-37.12568889 2.27555555-20.3776 17.60142222-34.83875555 37.12568889-37.12568889 20.36622222-2.37795555 38.7072 16.67982222 37.12568889 37.12568889z" fill="#FFFFFF" p-id="7072"></path></svg>